# xmcd
#
# Track frame offsets: 
#        150
#        19915
#        45745
#        68335
#        73435
#        94060
#        112612
#        138187
#        157480
#        178777
#
# Disc length: 2560 seconds
#
# Revision: 13
# Processed by: cddbd v1.5.2PL0 Copyright (c) Steve Scherf et al.
# Submitted via: ExactAudioCopy v1.0b3
#
DISCID=8809fe0a
DTITLE=Styx - Pieces Of Eight
DYEAR=1978
DGENRE=Rock
TTITLE0=Great White Hope
TTITLE1=I'm O.K.
TTITLE2=Sing For The Day
TTITLE3=The Message
TTITLE4=Lords of The Ring
TTITLE5=Blue Collar Man (Long Nights)
TTITLE6=Queen of Spades
TTITLE7=Renegade
TTITLE8=Pieces of Eight
TTITLE9=Aku-Aku
EXTD=YEAR: 1978
EXTT0=
EXTT1=
EXTT2=
EXTT3=
EXTT4=
EXTT5=
EXTT6=
EXTT7=
EXTT8=
EXTT9=
PLAYORDER=
